<svg width="138" height="131" viewBox="0 0 138 131" fill="none" xmlns="http://www.w3.org/2000/svg">
<g clip-path="url(#clip0_241_911)">
<path d="M75.8613 131V117.917H88.9381V130.986L75.8613 131ZM62.7845 117.924V85.9356H75.8613V117.924H62.7845ZM113.696 93.4427V72.8596H126.765V93.4427H113.696ZM100.619 72.8596V59.7836H113.696V72.8596H100.619ZM23.5613 85.9356V72.8596H36.6381V85.9356H23.5613ZM10.4917 72.8596V59.7836H23.5613V72.8596H10.4917ZM68.6285 27.8023V14.7191H81.7053V27.7879L68.6285 27.8023ZM16.8855 47.5465H43.3139V21.1197H16.8855V47.5465ZM10.4917 48.1034V20.5628C10.4917 18.909 11.051 17.5228 12.1697 16.4042C13.2884 15.2856 14.6746 14.7263 16.3285 14.7263H43.8708C45.5247 14.7263 46.9134 15.2856 48.0369 16.4042C49.1507 17.5228 49.7077 18.909 49.7077 20.5628V48.1034C49.7077 49.7572 49.1483 51.1458 48.0297 52.2692C46.911 53.3926 45.5247 53.9519 43.8708 53.9471H16.3285C14.6746 53.9471 13.2884 53.3878 12.1697 52.2692C11.051 51.1458 10.4917 49.7572 10.4917 48.1034ZM16.8855 124.599H44.4278V98.1726H16.8855V124.599ZM10.4917 125.156V97.6157C10.4917 95.9619 11.051 94.5757 12.1697 93.4572C13.2884 92.3337 14.6746 91.772 16.3285 91.772H44.9847C46.6386 91.772 48.0248 92.3337 49.1435 93.4572C50.267 94.5757 50.8287 95.9619 50.8287 97.6157V125.156C50.8287 126.81 50.267 128.196 49.1435 129.315C48.02 130.433 46.6337 130.995 44.9847 131H16.3285C14.6746 131 13.2884 130.438 12.1697 129.315C11.051 128.191 10.4917 126.805 10.4917 125.156ZM93.9431 47.5465H120.372V21.1197H93.9431V47.5465ZM87.5422 48.1034V20.5628C87.5422 18.909 88.1039 17.5228 89.2274 16.4042C90.3461 15.2856 91.7323 14.7263 93.3862 14.7263H120.929C122.582 14.7263 123.969 15.2856 125.087 16.4042C126.206 17.5228 126.768 18.909 126.773 20.5628V48.1034C126.773 49.7572 126.211 51.1458 125.087 52.2692C123.969 53.3878 122.582 53.9471 120.929 53.9471H93.3862C91.7323 53.9471 90.3461 53.3878 89.2274 52.2692C88.1039 51.1458 87.5422 49.7572 87.5422 48.1034ZM100.619 131V106.519H87.5494V93.4427H113.696V117.924H126.765V130.993L100.619 131ZM75.8613 85.9356V72.8596H100.619V85.9356H75.8613ZM49.7077 85.9356V72.8596H36.6381L36.6453 59.7836H75.8613V72.8596H62.7845V85.9356H49.7077ZM55.5517 53.9399V27.8023H68.6285V40.8783H81.7053V53.9543L55.5517 53.9399ZM25.5069 38.9256V29.7406H34.6925V38.9256H25.5069ZM26.4833 115.002V105.817H35.6689V115.002H26.4833ZM102.572 38.9184V29.7478H111.743V38.9329L102.572 38.9184Z" fill="black"/>
</g>
<defs>
<clipPath id="clip0_241_911">
<rect width="136.347" height="131" fill="white" transform="translate(0.82666)"/>
</clipPath>
</defs>
</svg>
